<svg id="color_line" height="512" viewBox="0 0 74 74" width="512" xmlns="http://www.w3.org/2000/svg" data-name="color line"><path d="m31.781 7.49-28.098 53.542a5.894 5.894 0 0 0 5.217 8.633h56.2a5.894 5.894 0 0 0 5.219-8.632l-28.1-53.543a5.894 5.894 0 0 0 -10.438 0z" fill="#fe7058"/><path d="m65.1 69.66h-56.2a5.827 5.827 0 0 1 -5.09-2.94h56.29a5.9 5.9 0 0 0 5.22-8.64l-28.1-53.54-.12-.21a5.794 5.794 0 0 1 5.12 3.16l28.1 53.54a5.892 5.892 0 0 1 -5.22 8.63z" fill="#ea6453"/><path d="m12.511 60.027 22.846-43.534a1.856 1.856 0 0 1 3.287 0l22.845 43.534a1.856 1.856 0 0 1 -1.643 2.718h-45.692a1.856 1.856 0 0 1 -1.643-2.718z" fill="#eeefee"/><path d="m59.85 62.75h-2.46a1.85 1.85 0 0 0 1.18-2.66l-22.84-43.53a1.775 1.775 0 0 0 -.21-.32 1.853 1.853 0 0 1 3.12.25l22.85 43.54a1.858 1.858 0 0 1 -1.64 2.72z" fill="#e1e6e9"/><g fill="#323c6b"><path d="m34.979 53.264a.5.5 0 0 1 -.409-.787l3.842-5.477-5.682-2.545a.5.5 0 0 1 -.179-.778l7.014-8.367a.5.5 0 1 1 .766.643l-6.588 7.86 5.63 2.519a.5.5 0 0 1 .205.744l-4.189 5.977a.5.5 0 0 1 -.41.211z"/><path d="m27.979 8.781a.492.492 0 0 1 -.231-.057.5.5 0 0 1 -.212-.675l.2-.375a.5.5 0 0 1 .887.464l-.2.375a.5.5 0 0 1 -.444.268z"/><path d="m29.125 6.6a.5.5 0 0 1 -.442-.732 9.328 9.328 0 0 1 7.525-4.979.5.5 0 1 1 .084 1 8.339 8.339 0 0 0 -6.725 4.443.5.5 0 0 1 -.442.268z"/><path d="m67.456 49.341a.5.5 0 0 1 -.442-.268l-4-7.625a.5.5 0 1 1 .885-.465l4 7.625a.5.5 0 0 1 -.442.732z"/><path d="m68.769 51.841a.5.5 0 0 1 -.442-.268l-.263-.5a.5.5 0 1 1 .885-.465l.263.5a.5.5 0 0 1 -.442.732z"/><path d="m65.1 70.165h-56.2a6.393 6.393 0 0 1 -5.66-9.365l28.1-53.542a6.393 6.393 0 0 1 11.322 0l28.098 53.542a6.393 6.393 0 0 1 -5.66 9.365zm-28.1-65.33a5.311 5.311 0 0 0 -4.775 2.887l-28.1 53.543a5.394 5.394 0 0 0 4.776 7.9h56.199a5.394 5.394 0 0 0 4.776-7.9l-28.1-53.542a5.311 5.311 0 0 0 -4.776-2.888z"/><path d="m59.846 63.246h-45.692a2.355 2.355 0 0 1 -2.086-3.451l22.846-43.534a2.356 2.356 0 0 1 4.172 0l22.846 43.534a2.355 2.355 0 0 1 -2.086 3.451zm-22.846-47.246a1.336 1.336 0 0 0 -1.2.726l-22.847 43.534a1.357 1.357 0 0 0 1.2 1.986h45.693a1.357 1.357 0 0 0 1.2-1.986l-22.846-43.534a1.336 1.336 0 0 0 -1.2-.726z"/></g><g fill="#fff"><path d="m17.566 44.709-3.479 6.358a.658.658 0 1 1 -1.143-.639l3.479-6.358a.658.658 0 1 1 1.143.639z"/><path d="m18.984 42.243-.133.246a.658.658 0 1 1 -1.143-.639l.133-.246a.658.658 0 1 1 1.143.639z"/></g></svg>