<?xml version="1.0" encoding="UTF-8" standalone="no"?>
<svg
   xmlns:dc="http://purl.org/dc/elements/1.1/"
   xmlns:cc="http://creativecommons.org/ns#"
   xmlns:rdf="http://www.w3.org/1999/02/22-rdf-syntax-ns#"
   xmlns:svg="http://www.w3.org/2000/svg"
   xmlns="http://www.w3.org/2000/svg"
   xmlns:sodipodi="http://sodipodi.sourceforge.net/DTD/sodipodi-0.dtd"
   xmlns:inkscape="http://www.inkscape.org/namespaces/inkscape"
   inkscape:version="1.0 (4035a4fb49, 2020-05-01)"
   sodipodi:docname="file_suratpernyataan.svg"
   version="1.1"
   viewBox="0 0 747.2108 570.00666"
   height="570.00666"
   width="747.2108"
   data-name="Layer 1"
   id="becd4ed6-983c-4267-a9ef-ba1a19b5a08b">
  <metadata
     id="metadata83">
    <rdf:RDF>
      <cc:Work
         rdf:about="">
        <dc:format>image/svg+xml</dc:format>
        <dc:type
           rdf:resource="http://purl.org/dc/dcmitype/StillImage" />
        <dc:title></dc:title>
      </cc:Work>
    </rdf:RDF>
  </metadata>
  <defs
     id="defs81">
    <rect
       id="rect87"
       height="127.53899"
       width="341.29148"
       y="279.30326"
       x="63.41324" />
  </defs>
  <sodipodi:namedview
     inkscape:current-layer="becd4ed6-983c-4267-a9ef-ba1a19b5a08b"
     inkscape:window-maximized="1"
     inkscape:window-y="-11"
     inkscape:window-x="-11"
     inkscape:cy="420.37991"
     inkscape:cx="373.60541"
     inkscape:zoom="1.4034924"
     showgrid="false"
     id="namedview79"
     inkscape:window-height="986"
     inkscape:window-width="1920"
     inkscape:pageshadow="2"
     inkscape:pageopacity="0"
     guidetolerance="10"
     gridtolerance="10"
     objecttolerance="10"
     borderopacity="1"
     bordercolor="#666666"
     pagecolor="#ffffff" />
  <path
     id="path2"
     fill="#e6e6e6"
     transform="translate(-226.3946 -164.99667)"
     d="M265.36558,212.82328a4.77608,4.77608,0,0,0-4.78143,4.75948l-1.17461,510.43858a4.77609,4.77609,0,0,0,4.75948,4.78144l411.21267.94627a4.77609,4.77609,0,0,0,4.78143-4.75948L681.33773,218.551a4.77608,4.77608,0,0,0-4.75947-4.78143Z" />
  <path
     id="path4"
     fill="#fff"
     transform="translate(-226.3946 -164.99667)"
     d="M280.59565,228.12384a4.77609,4.77609,0,0,0-4.78143,4.75948L274.70987,712.791a4.77607,4.77607,0,0,0,4.75947,4.78143l380.68224.876A4.77608,4.77608,0,0,0,664.933,713.689l1.10435-479.90768a4.77608,4.77608,0,0,0-4.75947-4.78143Z" />
  <path
     id="path6"
     fill="#e6e6e6"
     transform="translate(-226.3946 -164.99667)"
     d="M610.71032,436.51861l-280.5027-.64549a7.1557,7.1557,0,1,1,.03293-14.31136l280.5027.64549a7.1557,7.1557,0,0,1-.03293,14.31136Z" />
  <path
     id="path8"
     fill="#e6e6e6"
     transform="translate(-226.3946 -164.99667)"
     d="M613.42553,303.19l-186.094-.42824c-2.62183-.006-4.73992-3.21467-4.73083-7.1666s2.14193-7.15079,4.76376-7.14476l186.094.42824c2.62214.006,4.73992,3.21467,4.73083,7.1666S616.04766,303.196,613.42553,303.19Z" />
  <path
     id="path10"
     fill="#e6e6e6"
     transform="translate(-226.3946 -164.99667)"
     d="M613.33112,344.21586l-186.094-.42823c-2.62183-.006-4.73992-3.21468-4.73083-7.16661s2.14194-7.15079,4.76377-7.14475l186.094.42823c2.62214.006,4.73992,3.21468,4.73083,7.16661S615.95326,344.2219,613.33112,344.21586Z" />
  <path
     id="path12"
     fill="#e6e6e6"
     transform="translate(-226.3946 -164.99667)"
     d="M610.60383,482.792l-280.5027-.64548a7.1557,7.1557,0,0,1,.03293-14.31136l280.50271.64548a7.1557,7.1557,0,0,1-.03294,14.31136Z" />
  <path
     id="path14"
     fill="#e6e6e6"
     transform="translate(-226.3946 -164.99667)"
     d="M610.49735,529.06542l-280.5027-.64549a7.1557,7.1557,0,1,1,.03293-14.31136l280.5027.64549a7.1557,7.1557,0,1,1-.03293,14.31136Z" />
  <path
     id="path16"
     fill="#e6e6e6"
     transform="translate(-226.3946 -164.99667)"
     d="M610.39087,575.33882l-280.5027-.64548a7.1557,7.1557,0,1,1,.03293-14.31137l280.5027.64549a7.1557,7.1557,0,0,1-.03293,14.31136Z" />
  <path
     id="path18"
     fill="#e6e6e6"
     transform="translate(-226.3946 -164.99667)"
     d="M610.28438,621.61223l-280.5027-.64549a7.1557,7.1557,0,0,1,.03294-14.31136l280.5027.64549a7.1557,7.1557,0,0,1-.03294,14.31136Z" />
  <path
     id="path20"
     fill="#e6e6e6"
     transform="translate(-226.3946 -164.99667)"
     d="M610.1779,667.88563l-280.5027-.64548a7.1557,7.1557,0,1,1,.03293-14.31137l280.5027.64549a7.1557,7.1557,0,1,1-.03293,14.31136Z" />
  <circle
     id="circle22"
     fill="#3f3d56"
     r="37.68669"
     cy="151.44683"
     cx="134.61891" />
  <path
     id="path24"
     fill="#e6e6e6"
     transform="translate(-226.3946 -164.99667)"
     d="M418.80659,436.077" />
  <path
     id="path26"
     fill="#b663ff"
     transform="translate(-226.3946 -164.99667)"
     d="M577.07913,305.34939,577.078,216.1827a50.44769,50.44769,0,0,0-100.86823-2.21847h11.1029a39.39479,39.39479,0,0,1,39.30744-37.86834c.19183,0,.38636.00162.57819.00433a39.41934,39.41934,0,0,1,38.783,40.00228V305.396c.00217.22759.00217.45464,0,.6611a26.425,26.425,0,0,1-26.38749,26.07428q-.16255,0-.32513-.00163a26.43823,26.43823,0,0,1-26.07157-26.77656l.06069-88.56629a13.29569,13.29569,0,0,1,26.58636-.08724V284.333a5.54887,5.54887,0,1,0,11.09775,0l-.00109-67.72116a24.39255,24.39255,0,0,0-48.78022.084L502.1,305.28219a37.53446,37.53446,0,0,0,37.03439,37.94421c.155.00217.3067.00271.46168.00271a37.54415,37.54415,0,0,0,37.48307-37.05769C577.08129,305.88206,577.08129,305.59215,577.07913,305.34939Z" />
  <rect
     id="rect28"
     fill="#3f3d56"
     height="2"
     width="557.10645"
     y="567.89688" />
  <path
     id="path30"
     fill="#2f2e41"
     transform="translate(-226.3946 -164.99667)"
     d="M800.12184,288.40018h77.631V249.7941a39.602,39.602,0,0,0-11.36971-27.8762,38.26248,38.26248,0,0,0-27.44843-11.54915c-21.21455,0-38.25757,16.86463-38.801,38.39412-.00592.35357-.01184.68939-.01184,1.03123Z" />
  <path
     id="path32"
     fill="#ffb9b9"
     transform="translate(-226.3946 -164.99667)"
     d="M784.451,498.49329h0A11.60485,11.60485,0,0,0,797.343,485.104l-2.94954-18.025H779.84555l-5.05167,16.50211A11.60486,11.60486,0,0,0,784.451,498.49329Z" />
  <path
     id="path34"
     fill="#2f2e41"
     transform="translate(-226.3946 -164.99667)"
     d="M962.60386,713.48452l-17.27566,2.12157-89.106-186.69838L805.91058,715.60609l-18.18491-5.45547,16.97258-299.4448,80.01359-4.24315C915.06871,442.40185,938.91346,597.22064,962.60386,713.48452Z" />
  <path
     id="path36"
     fill="#2f2e41"
     transform="translate(-226.3946 -164.99667)"
     d="M796.15182,735.00333H759.90536a6.50031,6.50031,0,0,1-6.49468-6.22971h0a6.50032,6.50032,0,0,1,3.389-5.981l20.84769-11.33822,12.8449-3.42531c5.65461,6.47991,11.063,6.5137,16.2702,1.28449l1.70785,11.38568A12.45633,12.45633,0,0,1,796.15182,735.00333Z" />
  <path
     id="path38"
     fill="#2f2e41"
     transform="translate(-226.3946 -164.99667)"
     d="M951.93585,735.00333H915.6894a6.50031,6.50031,0,0,1-6.49468-6.22971h0a6.50033,6.50033,0,0,1,3.389-5.981l20.84769-11.33822,12.8449-3.42531c5.65461,6.47991,11.063,6.5137,16.2702,1.28449l1.70785,11.38568A12.45633,12.45633,0,0,1,951.93585,735.00333Z" />
  <path
     id="path40"
     fill="#b663ff"
     transform="translate(-226.3946 -164.99667)"
     d="M774.99624,471.32217l22.42805-1.21232,13.94176-161.84568L800.81357,309.847a17.85719,17.85719,0,0,0-15.11409,15.82837Z" />
  <circle
     id="circle42"
     fill="#ffb9b9"
     r="29.70202"
     cy="84.46963"
     cx="606.79334" />
  <path
     id="path44"
     fill="#ffb9b9"
     transform="translate(-226.3946 -164.99667)"
     d="M868.95159,300.384c-22.47578,65.62229-42.23825,70.2055-60.61636,43.64378,1.61856-19.7939,8.18861-35.83038,20.0034-47.88692,6.86063-4.70291,2.81061-13.63866-2.42465-23.03422l28.48969-9.69861C855.21546,275.37965,860.45768,287.7394,868.95159,300.384Z" />
  <path
     id="path46"
     fill="#b663ff"
     transform="translate(-226.3946 -164.99667)"
     d="M886.22725,409.19041c-32.54311,22.46717-61.81581,26.61988-81.22592,5.45547-6.78693-28.09813-8.18824-57.55542-4.89388-86.6668A31.09786,31.09786,0,0,1,814.06,305.4386l14.2786-9.2977,6.97088,22.125,26.97428-29.39893,20.3794,2.45958a15.044,15.044,0,0,1,13.15129,16.57973Z" />
  <path
     id="path48"
     fill="#2f2e41"
     transform="translate(-226.3946 -164.99667)"
     d="M866.44207,227.02612l-7.377,23.47067-63.78052-1.13352a39.42711,39.42711,0,0,1,71.15756-22.33715Z" />
  <path
     id="path50"
     fill="#e6e6e6"
     transform="translate(-226.3946 -164.99667)"
     d="M879.09818,473.26794a1.08511,1.08511,0,0,0-1.08632,1.08134L877.745,590.31889a1.08511,1.08511,0,0,0,1.08134,1.08632l93.42588.215a1.08509,1.08509,0,0,0,1.08632-1.08133l.26687-115.96961a1.08512,1.08512,0,0,0-1.08134-1.08633Z" />
  <path
     id="path52"
     fill="#fff"
     transform="translate(-226.3946 -164.99667)"
     d="M882.55839,476.74417a1.08512,1.08512,0,0,0-1.08632,1.08134l-.2509,109.03311a1.0851,1.0851,0,0,0,1.08133,1.08632l86.48949.199a1.08512,1.08512,0,0,0,1.08632-1.08134l.2509-109.03311a1.08509,1.08509,0,0,0-1.08133-1.08632Z" />
  <path
     id="path54"
     fill="#e6e6e6"
     transform="translate(-226.3946 -164.99667)"
     d="M957.55913,524.09063,893.83,523.944a1.62574,1.62574,0,1,1,.00749-3.25148l63.72909.14665a1.62574,1.62574,0,1,1-.00748,3.25148Z" />
  <path
     id="path56"
     fill="#e6e6e6"
     transform="translate(-226.3946 -164.99667)"
     d="M958.176,493.79889l-42.27982-.09729c-.59567-.00137-1.07689-.73036-1.07482-1.62822s.48664-1.62463,1.08231-1.62326l42.27982.09729c.59574.00137,1.07689.73036,1.07482,1.62822S958.77175,493.80026,958.176,493.79889Z" />
  <path
     id="path58"
     fill="#e6e6e6"
     transform="translate(-226.3946 -164.99667)"
     d="M958.15456,503.11982l-42.27982-.0973c-.59567-.00137-1.07689-.73036-1.07482-1.62822s.48664-1.62463,1.08231-1.62326l42.27982.09729c.59574.00137,1.07689.73036,1.07482,1.62823S958.7503,503.12119,958.15456,503.11982Z" />
  <path
     id="path60"
     fill="#e6e6e6"
     transform="translate(-226.3946 -164.99667)"
     d="M957.53494,534.60376l-63.7291-.14665a1.62574,1.62574,0,0,1,.00748-3.25148l63.7291.14665a1.62574,1.62574,0,0,1-.00748,3.25148Z" />
  <path
     id="path62"
     fill="#e6e6e6"
     transform="translate(-226.3946 -164.99667)"
     d="M957.51074,545.1169l-63.72909-.14665a1.62575,1.62575,0,0,1,.00748-3.25149l63.7291.14665a1.62575,1.62575,0,0,1-.00749,3.25149Z" />
  <path
     id="path64"
     fill="#e6e6e6"
     transform="translate(-226.3946 -164.99667)"
     d="M957.48655,555.63l-63.72909-.14665a1.62575,1.62575,0,1,1,.00748-3.25149l63.72909.14666a1.62574,1.62574,0,1,1-.00748,3.25148Z" />
  <path
     id="path66"
     fill="#e6e6e6"
     transform="translate(-226.3946 -164.99667)"
     d="M957.46236,566.14316l-63.7291-.14665a1.62574,1.62574,0,1,1,.00749-3.25148l63.72909.14665a1.62574,1.62574,0,1,1-.00748,3.25148Z" />
  <path
     id="path68"
     fill="#e6e6e6"
     transform="translate(-226.3946 -164.99667)"
     d="M957.43817,576.6563l-63.7291-.14666a1.62574,1.62574,0,0,1,.00748-3.25148l63.7291.14665a1.62575,1.62575,0,0,1-.00748,3.25149Z" />
  <circle
     id="circle70"
     fill="#3f3d56"
     r="8.56227"
     cy="331.81338"
     cx="674.43441" />
  <path
     id="path72"
     fill="#e6e6e6"
     transform="translate(-226.3946 -164.99667)"
     d="M913.95937,523.9903" />
  <path
     id="path74"
     fill="#ffb9b9"
     transform="translate(-226.3946 -164.99667)"
     d="M910.41453,481.52071h0a11.60485,11.60485,0,0,1-12.89194-13.38929l2.94954-18.025H915.02l5.05167,16.50211A11.60486,11.60486,0,0,1,910.41453,481.52071Z" />
  <path
     id="path76"
     fill="#b663ff"
     transform="translate(-226.3946 -164.99667)"
     d="M919.86933,454.34959l-22.428-1.21232L883.49952,291.29159l10.55248,1.58287a17.85718,17.85718,0,0,1,15.11409,15.82837Z" />
  <text
     transform="translate(23.512774,127.53899)"
     y="0"
     x="113.68164"
     style="font-style:normal;font-weight:normal;font-size:40px;line-height:1.25;font-family:sans-serif;letter-spacing:0px;word-spacing:0px;white-space:pre;shape-inside:url(#rect87);fill:#000000;fill-opacity:1;stroke:none;"
     id="text85"
     xml:space="preserve"><tspan
       x="63.414062"
       y="314.69336"><tspan
         style="font-style:normal;font-variant:normal;font-weight:bold;font-stretch:normal;font-family:sans-serif;-inkscape-font-specification:'sans-serif Bold'">SURAT </tspan></tspan><tspan
       x="63.414062"
       y="364.69336"><tspan
         style="font-style:normal;font-variant:normal;font-weight:bold;font-stretch:normal;font-family:sans-serif;-inkscape-font-specification:'sans-serif Bold'">PERNYATAAN</tspan></tspan></text>
</svg>
